<svg xmlns="http://www.w3.org/2000/svg" width="1000" height="1000" fill="#4081c5" xml:space="preserve"><path d="M989.1 562.9c-3.8-14.1-18-22.5-32.5-18.7L733.2 604l-77.4-44.7 94.7-92.2c7.2-7 9.8-17.6 6.7-27.2-3.1-9.6-11.4-16.6-21.4-18l-37.8-5.5 35.2-20.3L956.7 456c2.3.6 4.6.9 6.8.9 11.8 0 22.5-7.8 25.7-19.7 3.7-14.2-4.7-28.6-18.8-32.4L798 358.6l93-53.7c12.7-7.3 17-23.6 9.7-36.2-7.3-12.7-23.4-17.1-36.2-9.7l-92.9 53.6 46.1-172.2c3.7-14.2-4.7-28.7-18.8-32.5-14.3-3.8-28.7 4.7-32.5 18.7L706.5 350 613 404l-24-3.5-62.7-127.2V246L690.1 82.5c10.3-10.3 10.3-27.1 0-37.5-10.4-10.4-27.2-10.4-37.5 0L526.5 171V63.7c0-14.6-11.9-26.5-26.5-26.5-14.7 0-26.5 11.9-26.5 26.5v107.4L347.3 45c-10.3-10.3-27.1-10.4-37.5 0-10.3 10.3-10.3 27.1 0 37.5l163.6 163.6v27.1l-62.8 127.3-23.9 3.5-93.5-54-59.8-223.4c-3.7-14.1-18-22.5-32.5-18.8-14.1 3.8-22.6 18.3-18.7 32.4l46.1 172.2-92.9-53.7c-12.7-7.4-28.9-3-36.2 9.7-7.3 12.7-2.9 28.9 9.7 36.2l93 53.7-172.2 46.3C15.6 408.4 7.1 423 11 437c3.2 11.8 13.9 19.7 25.6 19.7 2.2 0 4.5-.3 6.9-.9L266.9 396l35.1 20.3-37.8 5.5c-10 1.5-18.3 8.4-21.4 18-3.1 9.6-.6 20.2 6.7 27.2l94.7 92.3-77.4 44.7-223.3-59.9c-14.3-3.8-28.7 4.6-32.5 18.7-3.8 14.1 4.6 28.7 18.8 32.5l172.1 46.1-92.9 53.7c-12.7 7.3-17 23.5-9.7 36.2 4.9 8.5 13.9 13.3 23 13.3 4.5 0 9-1.1 13.2-3.5l93-53.7-46.2 172.3c-3.8 14.1 4.6 28.7 18.7 32.5 2.3.6 4.6.9 6.9.9 11.7 0 22.5-7.8 25.6-19.7l60-223.5 53.7-31-16.7 97.4c-1.7 9.9 2.4 20 10.6 25.9 8.1 5.9 19 6.7 27.9 2l104.6-55v64.6L309.9 917.4c-10.3 10.4-10.3 27.2 0 37.5 10.4 10.3 27.2 10.3 37.5 0l126.1-126.1v107.4c0 14.7 11.9 26.5 26.5 26.5s26.5-11.9 26.5-26.5V829l126 126c5.2 5.1 12 7.8 18.8 7.8s13.5-2.6 18.8-7.8c10.3-10.4 10.3-27.2 0-37.6L526.5 754v-64.6L631 744.2c3.8 2.1 8.1 3.1 12.3 3.1 5.5 0 11-1.7 15.6-5.1 8.2-5.9 12.3-15.9 10.6-25.9l-16.7-97.5 53.9 31 59.9 223.5c3.2 11.9 13.9 19.7 25.6 19.7 2.2 0 4.6-.3 6.9-.9 14.1-3.8 22.5-18.4 18.7-32.5l-46.1-172.3 92.9 53.7c4.2 2.3 8.8 3.5 13.3 3.5 9.2 0 18.1-4.7 23-13.3 7.3-12.7 3-28.9-9.7-36.2l-92.9-53.6 172.2-46.1c13.9-3.7 22.3-18.2 18.6-32.4zm-476.9 59c-3.8-2.1-8.1-3.1-12.3-3.1-4.2 0-8.5 1-12.3 3.1l-95.8 50.3 18.3-106.7c1.5-8.6-1.4-17.3-7.6-23.5L325 466.5 432.1 451c8.7-1.3 16.1-6.7 20-14.5l47.9-97.1 47.9 97.1c3.9 7.8 11.4 13.3 20 14.5l107 15.5-77.4 75.5c-6.3 6.1-9.1 14.9-7.7 23.5L608 672.3l-95.8-50.4z"/></svg>